<?xml version="1.0" encoding="UTF-8" standalone="no"?>
<!-- Created with Inkscape (http://www.inkscape.org/) -->

<svg
   xmlns:dc="http://purl.org/dc/elements/1.1/"
   xmlns:cc="http://creativecommons.org/ns#"
   xmlns:rdf="http://www.w3.org/1999/02/22-rdf-syntax-ns#"
   xmlns:svg="http://www.w3.org/2000/svg"
   xmlns="http://www.w3.org/2000/svg"
   xmlns:sodipodi="http://sodipodi.sourceforge.net/DTD/sodipodi-0.dtd"
   xmlns:inkscape="http://www.inkscape.org/namespaces/inkscape"
   width="210mm"
   height="297mm"
   viewBox="0 0 210 297"
   version="1.1"
   id="svg3751"
   inkscape:version="0.92.4 (5da689c313, 2019-01-14)"
   sodipodi:docname="Bandera de El Orden oscura arreglada.svg"
   inkscape:export-filename="C:\Users\Usuario\Documents\Proyecto 1V\Historia de 1V (español)\Banderas\prueba2.png"
   inkscape:export-xdpi="96"
   inkscape:export-ydpi="96">
  <defs
     id="defs3745" />
  <sodipodi:namedview
     id="base"
     pagecolor="#ffffff"
     bordercolor="#666666"
     borderopacity="1.0"
     inkscape:pageopacity="0.0"
     inkscape:pageshadow="2"
     inkscape:zoom="1.15"
     inkscape:cx="533.80944"
     inkscape:cy="1099.7269"
     inkscape:document-units="mm"
     inkscape:current-layer="layer1"
     showgrid="false"
     inkscape:window-width="1366"
     inkscape:window-height="705"
     inkscape:window-x="-8"
     inkscape:window-y="-8"
     inkscape:window-maximized="1"
     inkscape:snap-to-guides="true"
     inkscape:snap-others="false"
     inkscape:snap-nodes="true"
     showguides="true"
     inkscape:guide-bbox="true">
    <sodipodi:guide
       position="233.16406,-33.624133"
       orientation="1,0"
       inkscape:locked="false"
       id="guide3823" />
  </sodipodi:namedview>
  <metadata
     id="metadata3748">
    <rdf:RDF>
      <cc:Work
         rdf:about="">
        <dc:format>image/svg+xml</dc:format>
        <dc:type
           rdf:resource="http://purl.org/dc/dcmitype/StillImage" />
        <dc:title />
      </cc:Work>
    </rdf:RDF>
  </metadata>
  <g
     inkscape:label="Capa 1"
     inkscape:groupmode="layer"
     id="layer1">
    <rect
       style="fill:#ffffff;stroke-width:0.24674171"
       id="rect4584"
       width="49.136909"
       height="75.595238"
       x="27.981461"
       y="70.390144"
       transform="rotate(-31.805171)" />
    <path
       style="fill:#ffffff;stroke-width:0.16131829"
       d="M 197.08524,0.00760209 0.01147081,122.35981 v 7.62433 H 10.6625 L 210.16506,6.1240252 V 0.00760209 Z"
       id="rect4593"
       inkscape:connector-curvature="0"
       inkscape:export-filename="C:\Users\Usuario\Documents\Proyecto 1V\Historia de 1V (español)\Banderas\Bandera de El Orden 4K.png"
       inkscape:export-xdpi="495.0589"
       inkscape:export-ydpi="495.0589" />
    <rect
       style="fill:#0000ff;stroke-width:0.26458332"
       id="rect34-8"
       width="48.380955"
       height="7.5595236"
       x="54.255615"
       y="26.736359" />
    <rect
       style="fill:#0000ff;stroke-width:0.26458332"
       id="rect34-8-6"
       width="48.380955"
       height="7.5595236"
       x="54.255608"
       y="41.855412" />
    <rect
       style="fill:#0000ff;stroke-width:0.26458332"
       id="rect34-8-3"
       width="48.380955"
       height="7.5595236"
       x="54.255604"
       y="56.974461" />
    <rect
       style="fill:#0000ff;stroke-width:0.26458332"
       id="rect34-8-6-8"
       width="48.380955"
       height="7.5595236"
       x="54.255596"
       y="72.093513" />
    <rect
       style="fill:#0000ff;stroke-width:0.15844874"
       id="rect34-8-8"
       width="17.351103"
       height="7.5595236"
       x="85.285439"
       y="87.212563" />
    <rect
       style="fill:#0000ff;stroke-width:0.11080573"
       id="rect34-8-6-7"
       width="8.4854317"
       height="7.5595236"
       x="94.1511"
       y="102.33163" />
    <rect
       style="fill:#ffffff;stroke-width:0.25901571"
       id="rect236"
       width="12.033605"
       height="14.574506"
       x="103.89267"
       y="-28.065838"
       transform="rotate(58.281918)" />
    <path
       style="fill:#000080;stroke-width:1.61290324"
       d="M 1.1842966,230.97794 V 0.95372697 H 370.86172 c 218.69921,0 369.05162,0.59191593 368.14516,1.44933483 C 733.64147,7.4780983 455.45244,178.44182 454.36646,177.33155 453.62523,176.57374 439.0913,153.45373 422.0688,125.95373 405.0463,98.453727 390.28755,75.061088 389.2716,73.970087 c -1.43846,-1.544712 -6.9045,1.131995 -24.70251,12.096774 l -22.85529,14.080419 22.47717,0.44751 22.4772,0.44751 v 13.66539 13.66539 h -44.89315 -44.89314 l -16.80041,10.20871 c -9.24022,5.6148 -20.42943,12.49617 -24.86492,15.29194 l -8.06451,5.08322 69.75806,0.0306 69.75807,0.0306 v 13.69341 13.6934 l -73.38863,0.4195 -73.38865,0.4195 8.46929,14.08014 8.46928,14.08015 64.91935,0.0327 64.91936,0.0328 v 13.70967 13.70968 h -55.64516 c -30.60484,0 -55.64517,0.46574 -55.64517,1.03498 0,0.56925 4.05683,7.46441 9.01517,15.32259 l 9.01517,14.28759 h 46.62999 46.63 v 13.70968 13.70968 h -37.53216 -37.53217 l -6.96695,-11.29033 c -3.8318,-6.20967 -7.56417,-11.29032 -8.29413,-11.29032 -0.72995,0 -12.82229,7.13207 -26.87185,15.84905 C 174.07818,353.40799 7.82096,456.70145 4.8133289,458.65045 l -3.6290323,2.3517 z"
       id="path42"
       inkscape:connector-curvature="0"
       transform="scale(0.26458333)" />
    <path
       style="fill:#000080;stroke-width:1.61290324"
       d="m 45.58348,489.06669 c 6.58803,-4.57559 271.71319,-168.85298 273.80528,-169.65579 1.33613,-0.51272 3.3852,1.38283 5.26191,4.86768 l 3.07364,5.70741 h 29.47192 29.47194 v 13.70967 13.70968 h -20.16129 c -11.08871,0 -20.16129,0.46574 -20.16129,1.03498 0,0.56925 4.05682,7.46441 9.01516,15.32258 l 9.01518,14.2876 h 11.14611 11.14613 v 10.48387 c 0,5.76613 0.47035,10.48387 1.04522,10.48387 0.57487,0 34.72005,-20.86693 75.87818,-46.37096 52.95797,-32.81592 74.64198,-47.0782 74.17966,-48.79033 -0.3593,-1.33064 -13.4775,-23.04714 -29.15153,-48.2589 -15.67403,-25.21174 -27.9325,-46.36566 -27.24102,-47.00871 0.945,-0.87881 299.20725,-186.192587 309.72497,-192.435707 1.60913,-0.955145 2.01613,45.872217 2.01613,231.962967 V 491.27631 H 417.76089 c -318.290285,0 -374.87517,-0.33595 -372.17741,-2.20962 z"
       id="path44"
       inkscape:connector-curvature="0"
       transform="scale(0.26458333)" />
  </g>
</svg>
